<svg width="101" height="32" viewBox="0 0 101 32" fill="none" xmlns="http://www.w3.org/2000/svg">
<path d="M4.37115 28.4375C8.18977 25.7503 10.6294 23.2045 11.0184 19.3152H10.8769C9.81621 21.1892 7.9069 22.3206 5.75009 22.3206C2.60327 22.3206 0.587891 20.1992 0.587891 15.9916V5.45506H4.54794V15.037C4.54794 17.4059 4.97223 19.4213 7.4119 19.4213C9.63942 19.4213 11.1244 17.512 11.1244 14.9662V5.45506H15.0845V16.2391C15.0845 23.1692 13.0338 26.9878 6.45725 31.2661L4.37115 28.4375Z" fill="#000AFF"/>
<path d="M22.7866 22.1438C19.7459 22.1438 17.6951 20.3759 17.6951 17.8302C17.6951 15.4259 19.0741 14.0116 22.7159 12.8094C25.5445 11.8901 26.8881 11.2537 26.8881 9.69796C26.8881 8.70795 26.2163 7.96544 24.9788 7.96544C23.4231 7.96544 21.7613 9.06153 20.1348 10.193L18.5084 7.68258C21.0188 5.98542 23.2463 4.99541 25.686 4.99541C28.9388 4.99541 30.8482 6.72793 30.8482 10.0515V16.5573C30.8482 18.3252 31.6614 18.8909 33.0403 18.8909H33.5V21.8256H32.2625C29.7874 21.8256 28.2317 20.6588 27.9488 18.6434H27.8074C26.9588 20.977 25.1909 22.1438 22.7866 22.1438ZM21.5491 17.4413C21.5491 18.6434 22.4331 19.4213 23.8827 19.4213C25.7567 19.4213 26.9942 18.007 26.9942 15.1784V13.3751C26.3577 14.3298 25.0849 14.6834 23.8827 15.037C22.1502 15.5673 21.5491 16.3805 21.5491 17.4413Z" fill="#000AFF"/>
<path d="M35.6026 21.8256V5.45506H39.5627V8.10687H39.7041C40.9063 6.05613 42.8863 4.99541 45.0078 4.99541C47.9778 4.99541 50.0992 6.834 50.0992 11.4658V21.8256H46.1392V12.2083C46.1392 9.45046 45.4674 7.85937 43.3459 7.85937C41.0831 7.85937 39.5627 9.76868 39.5627 12.3498V21.8256H35.6026Z" fill="#000AFF"/>
<path d="M61.9844 21.8256C58.3425 21.8256 56.3271 19.9517 56.3271 16.3098V8.38973H51.9074V5.45506H56.3271V0.398926H60.2518V5.45506H65.4494V8.38973H60.2518V16.3098C60.2518 18.0423 61.1004 18.8909 62.8683 18.8909H65.9798V21.8256H61.9844Z" fill="#000AFF"/>
<path d="M72.9571 22.1438C69.9163 22.1438 67.8656 20.3759 67.8656 17.8302C67.8656 15.4259 69.2445 14.0116 72.8864 12.8094C75.715 11.8901 77.0585 11.2537 77.0585 9.69796C77.0585 8.70795 76.3868 7.96544 75.1492 7.96544C73.5935 7.96544 71.9317 9.06153 70.3053 10.193L68.6788 7.68258C71.1892 5.98542 73.4167 4.99541 75.8564 4.99541C79.1093 4.99541 81.0186 6.72793 81.0186 10.0515V16.5573C81.0186 18.3252 81.8318 18.8909 83.2108 18.8909H83.6704V21.8256H82.4329C79.9579 21.8256 78.4021 20.6588 78.1193 18.6434H77.9778C77.1293 20.977 75.3614 22.1438 72.9571 22.1438ZM71.7196 17.4413C71.7196 18.6434 72.6035 19.4213 74.0532 19.4213C75.9271 19.4213 77.1646 18.007 77.1646 15.1784V13.3751C76.5282 14.3298 75.2553 14.6834 74.0532 15.037C72.3206 15.5673 71.7196 16.3805 71.7196 17.4413Z" fill="#000AFF"/>
<path d="M85.2074 21.8256V18.8909H89.5917V8.38973H85.2074V5.45506H93.5164V9.37974H93.6578C94.471 6.86936 96.345 5.45506 99.4211 5.45506H100.588V8.99081H97.9361C94.9307 8.99081 93.5164 10.4051 93.5164 13.4812V18.8909H99.1382V21.8256H85.2074Z" fill="#000AFF"/>
</svg>
